<svg xmlns="http://www.w3.org/2000/svg" width="49.086" height="49.077" viewBox="0 0 49.086 49.077">
  <g id="world_1_" data-name="world (1)" transform="translate(-47 -205.903)">
    <g id="world_1_2" data-name="world (1)" transform="translate(47 205.854)" opacity="0.83">
      <ellipse id="Ellipse_2" data-name="Ellipse 2" cx="17.998" cy="17.998" rx="17.998" ry="17.998" transform="translate(6.545 7.412)" fill="#3eaafa" opacity="0.23"/>
      <path id="Path_170" data-name="Path 170" d="M232.964,93.94l-.189-.025s1.909,4.568,0,5.727l-1.972.789a3.415,3.415,0,0,0-2.116,2.778c0,.038-.009.076-.015.115a1.388,1.388,0,0,1-2.564.479l-.812-1.354a.744.744,0,0,0-1.312.063,20.181,20.181,0,0,0-1.8,5.427,2.17,2.17,0,0,0,.217,1.228l.943,1.887a3.283,3.283,0,0,0,1.189,1.31,11.329,11.329,0,0,1,2.564,2.126A4.024,4.024,0,0,0,230.18,116h0a.128.128,0,0,1,.131.135c-.056.865-.274,5.592,1.646,5.592,0,0,4.091.784,4.091-5.727l1.361-6.127a.505.505,0,0,1,.926-.151l.848,1.414a1.674,1.674,0,0,0,2.439.478l1.788-1.342A18,18,0,0,0,232.964,93.94Z" transform="translate(-200.869 -84.867)" fill="#fff"/>
      <path id="Path_171" data-name="Path 171" d="M80.636,299.719v-1.23a1.479,1.479,0,0,0-2-1.385l-3.929,1.473a18.021,18.021,0,0,0,13.857,12.974l.3-1.049a4.763,4.763,0,0,0-1.212-4.676l-.5-.5a5.843,5.843,0,0,0-1.829-1.239l-2.523-1.082A3.581,3.581,0,0,1,80.636,299.719Z" transform="translate(-67.546 -268.489)" fill="#fff"/>
      <path id="Path_172" data-name="Path 172" d="M68.54,117.792l2.5-.974,2.565-1.026a1.657,1.657,0,0,0,.956-2.063,1.657,1.657,0,0,1,.4-1.7l1.73-1.729.627-.627a3.443,3.443,0,0,0,1.009-2.436v-1.064a4.57,4.57,0,0,0-1.031-2.881A17.994,17.994,0,0,0,68.54,117.792Z" transform="translate(-61.969 -93.347)" fill="#fff"/>
      <g id="Group_36" data-name="Group 36" transform="translate(0 0.049)">
        <path id="Path_173" data-name="Path 173" d="M78.55,105.949A18.817,18.817,0,1,1,97.366,87.133,18.838,18.838,0,0,1,78.55,105.949Zm0-36a17.18,17.18,0,1,0,17.18,17.18A17.2,17.2,0,0,0,78.55,69.952Z" transform="translate(-54.006 -61.771)" fill="#1d71f3"/>
        <path id="Path_174" data-name="Path 174" d="M224.637,114.863a3.527,3.527,0,0,1-.461-.029,1.88,1.88,0,0,1-1.329-.619c-1.043-1.113-1.144-3.632-1.1-5.164a4.922,4.922,0,0,1-3-1.756,10.721,10.721,0,0,0-2.37-1.956A4.12,4.12,0,0,1,214.9,103.7l-.943-1.887a2.986,2.986,0,0,1-.3-1.69,20.71,20.71,0,0,1,1.87-5.676,1.562,1.562,0,0,1,2.755-.137l.812,1.354a.58.58,0,0,0,.629.268.508.508,0,0,0,.423-.437l.012-.094a4.236,4.236,0,0,1,2.626-3.447l1.9-.758c.856-.623.187-3.339-.376-4.682a.818.818,0,0,1,.106-.813.809.809,0,0,1,.758-.313l.189.025a.824.824,0,0,1,.236.069,18.883,18.883,0,0,1,10.92,17.078.818.818,0,0,1-.327.655L234.4,104.56a2.491,2.491,0,0,1-3.631-.711l-.445-.741-1.172,5.274c-.015,2.635-.677,4.512-1.968,5.579A3.986,3.986,0,0,1,224.637,114.863Zm-7.686-19.59a19.364,19.364,0,0,0-1.668,5.047,1.352,1.352,0,0,0,.137.766l.943,1.887a2.477,2.477,0,0,0,.894.984,12.045,12.045,0,0,1,2.757,2.3,3.217,3.217,0,0,0,2.453,1.219.946.946,0,0,1,.947,1c-.141,2.176.117,4.075.627,4.619.172.183.252.1.357.118a2.331,2.331,0,0,0,1.764-.532c.885-.749,1.353-2.267,1.353-4.392a.807.807,0,0,1,.02-.178l1.361-6.127a1.323,1.323,0,0,1,2.427-.394l.848,1.414a.855.855,0,0,0,1.246.245l1.456-1.092a17.256,17.256,0,0,0-8.443-14.388c.408,1.654.609,3.914-.945,4.858a.87.87,0,0,1-.12.06l-1.972.789a2.6,2.6,0,0,0-1.608,2.115l-.017.129a2.138,2.138,0,0,1-1.716,1.817,2.206,2.206,0,0,1-2.36-1.029Z" transform="translate(-193.155 -77.202)" fill="#1d71f3"/>
        <path id="Path_175" data-name="Path 175" d="M80.839,304.669a.834.834,0,0,1-.16-.016,18.923,18.923,0,0,1-14.488-13.565.818.818,0,0,1,.5-.979l3.929-1.473a2.3,2.3,0,0,1,3.1,2.151v1.231a2.759,2.759,0,0,0,1.674,2.539l2.523,1.081a6.621,6.621,0,0,1,2.085,1.412l.5.495a5.584,5.584,0,0,1,1.42,5.48l-.3,1.049A.819.819,0,0,1,80.839,304.669ZM67.98,291.376a17.293,17.293,0,0,0,12.284,11.509l.088-.308a3.947,3.947,0,0,0-1-3.873l-.5-.495a5.01,5.01,0,0,0-1.573-1.065l-2.523-1.082a4.393,4.393,0,0,1-2.665-4.043v-1.231a.661.661,0,0,0-.894-.618Z" transform="translate(-59.82 -260.838)" fill="#1d71f3"/>
        <path id="Path_176" data-name="Path 176" d="M60.829,110.9a.818.818,0,0,1-.817-.861A18.789,18.789,0,0,1,69.17,94.879a.818.818,0,0,1,1.055.187,5.413,5.413,0,0,1,1.213,3.4v1.064a4.231,4.231,0,0,1-1.248,3.013L67.832,104.9a.837.837,0,0,0-.2.859,2.478,2.478,0,0,1-1.429,3.082l-5.075,2A.837.837,0,0,1,60.829,110.9Zm8.524-14.2a17.151,17.151,0,0,0-7.59,12.142l3.83-1.518a.84.84,0,0,0,.484-1.045,2.462,2.462,0,0,1,.6-2.533l2.358-2.358a2.6,2.6,0,0,0,.77-1.856V98.462A3.738,3.738,0,0,0,69.353,96.7Z" transform="translate(-54.258 -85.682)" fill="#1d71f3"/>
        <path id="Path_177" data-name="Path 177" d="M222.7,1.81a.818.818,0,0,1-.083-1.632,24.94,24.94,0,0,1,2.536-.129.818.818,0,0,1,0,1.636,23.559,23.559,0,0,0-2.369.12A.708.708,0,0,1,222.7,1.81Z" transform="translate(-200.61 -0.049)" fill="#1d71f3"/>
        <path id="Path_178" data-name="Path 178" d="M25.24,59.612a.818.818,0,0,1-.023-1.635,22.956,22.956,0,0,0,4.638-.609.818.818,0,0,1,.378,1.592,24.616,24.616,0,0,1-4.968.652Zm-4.83-.349a.84.84,0,0,1-.142-.012,24.413,24.413,0,0,1-4.82-1.37.818.818,0,1,1,.607-1.519,22.828,22.828,0,0,0,4.5,1.278.818.818,0,0,1-.142,1.623Zm-8.951-3.572a.818.818,0,0,1-.451-.136,24.758,24.758,0,0,1-3.874-3.177.818.818,0,1,1,1.16-1.154,23.046,23.046,0,0,0,3.617,2.966.819.819,0,0,1-.452,1.5ZM4.667,48.855a.817.817,0,0,1-.686-.371,24.562,24.562,0,0,1-2.3-4.453.818.818,0,0,1,1.523-.6A22.884,22.884,0,0,0,5.352,47.59a.817.817,0,0,1-.685,1.265ZM1.15,39.883A.819.819,0,0,1,.344,39.2,24.862,24.862,0,0,1,0,35.078q0-.439.016-.875a.818.818,0,1,1,1.635.056q-.015.409-.015.818a23.167,23.167,0,0,0,.322,3.85.818.818,0,0,1-.67.943A.786.786,0,0,1,1.15,39.883Zm.344-9.63A.844.844,0,0,1,1.3,30.23a.818.818,0,0,1-.6-.989A24.4,24.4,0,0,1,2.382,24.52a.818.818,0,1,1,1.477.7,22.78,22.78,0,0,0-1.57,4.4A.82.82,0,0,1,1.494,30.253Zm4.147-8.7a.818.818,0,0,1-.65-1.313,24.771,24.771,0,0,1,3.421-3.661.818.818,0,1,1,1.076,1.233,23.052,23.052,0,0,0-3.194,3.418A.819.819,0,0,1,5.641,21.556ZM12.9,15.219a.818.818,0,0,1-.4-1.531,24.46,24.46,0,0,1,4.6-2,.818.818,0,0,1,.5,1.559A22.768,22.768,0,0,0,13.3,15.113.817.817,0,0,1,12.9,15.219Z" transform="translate(0 -10.535)" fill="#1d71f3"/>
        <path id="Path_179" data-name="Path 179" d="M353.742,462.134a.818.818,0,0,1-.349-1.559,23,23,0,0,0,2.086-1.12.818.818,0,0,1,.848,1.4,24.42,24.42,0,0,1-2.236,1.2A.823.823,0,0,1,353.742,462.134Z" transform="translate(-319.087 -415.304)" fill="#1d71f3"/>
        <path id="Path_180" data-name="Path 180" d="M418.952,385.328a.818.818,0,0,1-.818-.818v-2.454a.821.821,0,0,1,.316-.646l7.363-5.727a.818.818,0,0,1,1,1.292l-7.046,5.481v2.054A.818.818,0,0,1,418.952,385.328Z" transform="translate(-378.046 -339.514)" fill="#1d71f3"/>
        <path id="Path_181" data-name="Path 181" d="M395.808,429.159a.819.819,0,0,1-.259-.043l-2.454-.818a.818.818,0,0,1,.518-1.552l2.454.818a.818.818,0,0,1-.259,1.595Z" transform="translate(-354.902 -385.799)" fill="#1d71f3"/>
        <path id="Path_182" data-name="Path 182" d="M424.673,383.684a.819.819,0,0,1-.76-.515l-1.534-3.835-3.854-2.313a.818.818,0,0,1,.842-1.4l4.091,2.454a.817.817,0,0,1,.339.4l1.636,4.091a.818.818,0,0,1-.456,1.063A.792.792,0,0,1,424.673,383.684Z" transform="translate(-378.041 -339.506)" fill="#1d71f3"/>
      </g>
    </g>
  </g>
</svg>
